<svg version="1.1" id="Layer_1" xmlns="http://www.w3.org/2000/svg" xmlns:xlink="http://www.w3.org/1999/xlink" x="0px" y="0px"
	 viewBox="0 0 500 120" style="enable-background:new 0 0 500 120;" xml:space="preserve">
<style type="text/css">
	.st0{fill:#FFFFFF;}
</style>
<g>
	<path class="st0" d="M28.42,13.69V93H17.54V13.69H28.42z"/>
	<path class="st0" d="M57.32,93H46.44V13.69h28.68c4.03,0,7.62,0.55,10.77,1.65c3.15,1.1,5.79,2.6,7.91,4.51
		c2.12,1.91,3.75,4.18,4.89,6.82c1.14,2.64,1.7,5.54,1.7,8.69v2.86c0,4.47-1.15,8.43-3.46,11.88c-2.31,3.45-5.59,6.01-9.83,7.7
		L102.81,93H91.05L76.77,59.89H57.32V93z M57.32,50.65h15.16c6.15,0,10.53-1.16,13.13-3.47c2.6-2.31,3.9-5.41,3.9-9.29v-2.2
		c0-3.89-1.28-6.97-3.85-9.24c-2.57-2.27-6.59-3.41-12.09-3.41H57.32V50.65z"/>
	<path class="st0" d="M147.09,94.21c-4.76,0-9.1-0.71-13.02-2.14c-3.92-1.43-7.31-3.61-10.17-6.55c-2.86-2.93-5.07-6.56-6.65-10.89
		c-1.58-4.33-2.36-9.42-2.36-15.29V47.35c0-5.79,0.79-10.85,2.36-15.18c1.57-4.33,3.79-7.96,6.65-10.89
		c2.86-2.93,6.26-5.13,10.22-6.6c3.96-1.47,8.28-2.2,12.97-2.2c4.69,0,9.01,0.73,12.97,2.2c3.96,1.47,7.36,3.67,10.22,6.6
		c2.86,2.93,5.07,6.56,6.65,10.89c1.57,4.33,2.36,9.39,2.36,15.18v11.99c0,5.87-0.79,10.96-2.36,15.29
		c-1.58,4.33-3.79,7.96-6.65,10.89c-2.86,2.93-6.26,5.12-10.22,6.55C156.1,93.5,151.78,94.21,147.09,94.21z M147.09,22.38
		c-3.08,0-5.92,0.5-8.52,1.49c-2.6,0.99-4.83,2.53-6.7,4.62c-1.87,2.09-3.33,4.8-4.4,8.14c-1.06,3.34-1.59,7.32-1.59,11.94v9.57
		c0,4.62,0.53,8.6,1.59,11.94c1.06,3.34,2.53,6.05,4.4,8.14s4.1,3.63,6.7,4.62c2.6,0.99,5.44,1.49,8.52,1.49
		c3.08,0,5.91-0.5,8.52-1.49c2.6-0.99,4.83-2.53,6.7-4.62s3.33-4.8,4.4-8.14c1.06-3.34,1.59-7.32,1.59-11.94v-9.57
		c0-4.62-0.53-8.6-1.59-11.94c-1.06-3.34-2.53-6.05-4.4-8.14c-1.87-2.09-4.1-3.63-6.7-4.62C153.01,22.88,150.17,22.38,147.09,22.38z
		"/>
	<path class="st0" d="M207.42,13.69l30.77,53.46c0.8,1.32,1.7,2.99,2.69,5c0.99,2.02,1.96,4.2,2.91,6.54V13.69h10.11V93h-12.53
		l-30.77-53.24c-0.81-1.47-1.7-3.19-2.69-5.17c-0.99-1.98-1.96-4.14-2.91-6.49V93h-10.11V13.69H207.42z"/>
	<path class="st0" d="M297.42,70.56c0-2.2,0.35-4.27,1.04-6.21c0.7-1.94,1.67-3.7,2.91-5.28c1.25-1.58,2.69-2.95,4.34-4.13
		c1.65-1.17,3.42-2.05,5.33-2.64c-3.81-1.83-6.65-4.36-8.52-7.59c-1.87-3.23-2.8-6.53-2.8-9.9v-1.54c0-2.86,0.53-5.54,1.59-8.03
		c1.06-2.49,2.62-4.69,4.67-6.6c2.05-1.91,4.58-3.41,7.58-4.51c3-1.1,6.45-1.65,10.33-1.65c3.81,0,7.21,0.55,10.22,1.65
		c3,1.1,5.53,2.6,7.58,4.51c2.05,1.91,3.63,4.11,4.73,6.6c1.1,2.49,1.65,5.17,1.65,8.03v1.54c0,3.37-0.92,6.64-2.75,9.79
		c-1.83,3.15-4.69,5.72-8.57,7.7c3.88,1.17,7.12,3.41,9.72,6.71c2.6,3.3,3.9,7.15,3.9,11.55v1.87c0,3.15-0.6,6.07-1.81,8.75
		c-1.21,2.68-2.95,4.97-5.22,6.88c-2.27,1.91-5.04,3.41-8.3,4.51c-3.26,1.1-6.98,1.65-11.15,1.65c-4.17,0-7.89-0.55-11.15-1.65
		c-3.26-1.1-6.03-2.6-8.3-4.51c-2.27-1.91-4.01-4.2-5.22-6.88c-1.21-2.68-1.81-5.59-1.81-8.75V70.56z M308.62,71.88
		c0,3.74,1.37,6.76,4.12,9.08s6.5,3.46,11.26,3.46c4.76,0,8.48-1.15,11.15-3.46c2.67-2.31,4.01-5.33,4.01-9.08v-1.21
		c0-4.33-1.43-7.63-4.29-9.9c-2.86-2.27-6.48-3.41-10.88-3.41c-2.13,0-4.12,0.27-5.99,0.82c-1.87,0.55-3.5,1.39-4.89,2.53
		c-1.39,1.14-2.49,2.53-3.3,4.18c-0.81,1.65-1.21,3.58-1.21,5.78V71.88z M310.71,35.25c0,3.96,1.26,7.04,3.79,9.24
		s5.66,3.3,9.39,3.3c3.74,0,6.87-1.1,9.4-3.3s3.79-5.28,3.79-9.24v-1.21c0-3.74-1.21-6.67-3.63-8.8c-2.42-2.13-5.6-3.19-9.56-3.19
		c-3.96,0-7.14,1.06-9.56,3.19c-2.42,2.13-3.63,5.06-3.63,8.8V35.25z"/>
	<path class="st0" d="M364.44,70.56c0-2.2,0.35-4.27,1.04-6.21c0.7-1.94,1.67-3.7,2.91-5.28c1.25-1.58,2.69-2.95,4.34-4.13
		c1.65-1.17,3.42-2.05,5.33-2.64c-3.81-1.83-6.65-4.36-8.52-7.59c-1.87-3.23-2.8-6.53-2.8-9.9v-1.54c0-2.86,0.53-5.54,1.59-8.03
		c1.06-2.49,2.62-4.69,4.67-6.6c2.05-1.91,4.58-3.41,7.58-4.51c3-1.1,6.45-1.65,10.33-1.65c3.81,0,7.21,0.55,10.22,1.65
		c3,1.1,5.53,2.6,7.58,4.51c2.05,1.91,3.63,4.11,4.73,6.6c1.1,2.49,1.65,5.17,1.65,8.03v1.54c0,3.37-0.92,6.64-2.75,9.79
		c-1.83,3.15-4.69,5.72-8.57,7.7c3.88,1.17,7.12,3.41,9.72,6.71c2.6,3.3,3.9,7.15,3.9,11.55v1.87c0,3.15-0.6,6.07-1.81,8.75
		c-1.21,2.68-2.95,4.97-5.22,6.88c-2.27,1.91-5.04,3.41-8.3,4.51c-3.26,1.1-6.98,1.65-11.15,1.65c-4.17,0-7.89-0.55-11.15-1.65
		c-3.26-1.1-6.03-2.6-8.3-4.51c-2.27-1.91-4.01-4.2-5.22-6.88c-1.21-2.68-1.81-5.59-1.81-8.75V70.56z M375.65,71.88
		c0,3.74,1.37,6.76,4.12,9.08s6.5,3.46,11.26,3.46c4.76,0,8.48-1.15,11.15-3.46c2.67-2.31,4.01-5.33,4.01-9.08v-1.21
		c0-4.33-1.43-7.63-4.29-9.9c-2.86-2.27-6.48-3.41-10.88-3.41c-2.13,0-4.12,0.27-5.99,0.82c-1.87,0.55-3.5,1.39-4.89,2.53
		c-1.39,1.14-2.49,2.53-3.3,4.18c-0.81,1.65-1.21,3.58-1.21,5.78V71.88z M377.74,35.25c0,3.96,1.26,7.04,3.79,9.24
		s5.66,3.3,9.39,3.3c3.74,0,6.87-1.1,9.4-3.3s3.79-5.28,3.79-9.24v-1.21c0-3.74-1.21-6.67-3.63-8.8c-2.42-2.13-5.6-3.19-9.56-3.19
		c-3.96,0-7.14,1.06-9.56,3.19c-2.42,2.13-3.63,5.06-3.63,8.8V35.25z"/>
	<path class="st0" d="M432.68,24.36c1.17-1.61,2.47-3.15,3.9-4.62c1.43-1.47,3.08-2.73,4.94-3.79c1.87-1.06,3.96-1.91,6.26-2.53
		c2.31-0.62,4.96-0.93,7.97-0.93c3.66,0,6.96,0.48,9.89,1.43c2.93,0.95,5.44,2.29,7.53,4.01c2.09,1.72,3.7,3.81,4.83,6.27
		c1.13,2.46,1.7,5.15,1.7,8.08v1.1c0,1.54-0.18,3.19-0.55,4.95c-0.37,1.76-1.03,3.45-1.98,5.06c-0.95,1.61-2.24,3.12-3.85,4.51
		c-1.61,1.39-3.63,2.53-6.04,3.41c5.35,0.95,9.36,3.08,12.03,6.38c2.67,3.3,4.01,7.26,4.01,11.88v1.65c0,2.93-0.53,5.77-1.59,8.52
		c-1.06,2.75-2.71,5.21-4.95,7.37c-2.24,2.16-5.11,3.89-8.63,5.17c-3.52,1.28-7.69,1.92-12.53,1.92c-4.61,0-9.07-0.71-13.35-2.14
		c-4.29-1.43-8.3-3.65-12.03-6.66l5.38-8.69c3.88,2.79,7.33,4.75,10.33,5.88c3,1.14,6.23,1.71,9.67,1.71c2.86,0,5.35-0.35,7.47-1.04
		c2.12-0.7,3.88-1.63,5.27-2.81c1.39-1.17,2.42-2.55,3.08-4.13c0.66-1.58,0.99-3.25,0.99-5V69.9c0-2.64-0.42-4.82-1.26-6.54
		c-0.84-1.72-2-3.1-3.46-4.13c-1.47-1.03-3.21-1.76-5.22-2.2c-2.02-0.44-4.16-0.66-6.43-0.66h-9.78v-9.46h9.34
		c2.49,0,4.58-0.38,6.26-1.16c1.68-0.77,3.04-1.78,4.07-3.02c1.02-1.25,1.78-2.68,2.25-4.29c0.48-1.61,0.71-3.26,0.71-4.95v-0.88
		c0-1.76-0.35-3.28-1.04-4.57c-0.7-1.28-1.63-2.36-2.8-3.25c-1.17-0.88-2.56-1.54-4.17-1.98c-1.61-0.44-3.3-0.66-5.05-0.66
		c-3.3,0-6.15,0.62-8.57,1.87c-2.42,1.25-4.69,3.26-6.81,6.05L432.68,24.36z"/>
</g>
</svg>
