<svg version="1.1" id="Layer_1" xmlns="http://www.w3.org/2000/svg" xmlns:xlink="http://www.w3.org/1999/xlink" x="0px" y="0px"
	 viewBox="0 0 500 120" style="enable-background:new 0 0 500 120;" xml:space="preserve">
<g>
	<path d="M37.92-59.86H-8.87v-14.18H4.22v-51.62H-8.87v-14.18h46.79v14.18H24.83v51.62h13.09V-59.86z"/>
	<path d="M131.65-59.86h-25.17L84.75-89.19h-9.55v29.33h-20.5v-79.98h34.55c4.72,0,8.78,0.27,12.18,0.81s6.58,1.7,9.55,3.49
		c3,1.79,5.39,4.11,7.16,6.96s2.66,6.42,2.66,10.72c0,5.91-1.37,10.72-4.1,14.45c-2.74,3.72-6.65,6.82-11.72,9.29L131.65-59.86z
		 M99.51-115.34c0-2-0.41-3.72-1.23-5.16c-0.82-1.43-2.24-2.56-4.24-3.38c-1.39-0.57-3.02-0.92-4.88-1.05
		c-1.86-0.13-4.02-0.19-6.49-0.19h-7.46v21.54h6.33c3.29,0,6.04-0.16,8.26-0.48c2.22-0.32,4.08-1.06,5.58-2.2
		c1.43-1.11,2.48-2.34,3.14-3.68C99.18-111.29,99.51-113.09,99.51-115.34z"/>
	<path d="M218.36-99.82c0,12.75-3.65,22.87-10.95,30.37c-7.3,7.5-17.38,11.25-30.26,11.25c-12.84,0-22.91-3.75-30.21-11.25
		c-7.3-7.5-10.95-17.63-10.95-30.37c0-12.85,3.65-23.02,10.95-30.48c7.3-7.47,17.37-11.2,30.21-11.2c12.81,0,22.88,3.73,30.21,11.2
		C214.69-122.84,218.36-112.68,218.36-99.82z M191.05-79.57c2-2.43,3.49-5.31,4.45-8.62c0.97-3.31,1.45-7.21,1.45-11.68
		c0-4.8-0.55-8.88-1.66-12.25c-1.11-3.37-2.56-6.09-4.35-8.16c-1.83-2.15-3.93-3.71-6.3-4.67c-2.38-0.97-4.86-1.45-7.43-1.45
		c-2.61,0-5.07,0.47-7.38,1.4c-2.31,0.93-4.43,2.47-6.36,4.62c-1.79,2.01-3.25,4.77-4.37,8.3c-1.13,3.53-1.69,7.62-1.69,12.27
		c0,4.76,0.54,8.82,1.64,12.17c1.09,3.35,2.53,6.08,4.32,8.19c1.79,2.11,3.88,3.67,6.28,4.67c2.4,1,4.92,1.5,7.57,1.5
		c2.65,0,5.17-0.51,7.57-1.53S189.26-77.42,191.05-79.57z"/>
	<path d="M306.73-59.86h-19.85l-33.91-54.89v54.89h-18.89v-79.98h24.63l29.13,45.82v-45.82h18.89V-59.86z"/>
	<path d="M427.29-82.2c0,7.09-3.01,12.89-9.04,17.4c-6.03,4.51-14.3,6.77-24.82,6.77c-5.9,0-10.96-0.61-15.18-1.83
		c-4.22-1.22-7.71-2.9-10.46-5.05c-2.72-2.11-4.73-4.58-6.04-7.41c-1.31-2.83-1.96-5.87-1.96-9.13c0-4.01,1.17-7.56,3.51-10.66
		c2.34-3.1,6.39-5.81,12.15-8.14v-0.32c-4.65-2.15-8.07-4.85-10.25-8.11c-2.18-3.26-3.27-7.04-3.27-11.33
		c0-6.34,2.93-11.53,8.8-15.58c5.87-4.05,13.5-6.07,22.91-6.07c9.87,0,17.61,1.84,23.21,5.51c5.6,3.67,8.4,8.57,8.4,14.69
		c0,3.8-1.18,7.18-3.54,10.15c-2.36,2.97-5.97,5.5-10.84,7.57v0.32c5.58,2.11,9.71,4.96,12.39,8.54
		C425.95-91.3,427.29-87.07,427.29-82.2z M406.8-81.29c0-2.58-0.64-4.53-1.93-5.85c-1.29-1.32-3.93-2.85-7.94-4.57
		c-1.18-0.54-2.9-1.2-5.15-1.99c-2.25-0.79-4.15-1.47-5.69-2.04c-1.54,1.4-2.92,3.09-4.16,5.08c-1.23,1.99-1.85,4.22-1.85,6.69
		c0,3.72,1.33,6.69,4,8.89c2.66,2.2,6.14,3.3,10.44,3.3c1.14,0,2.49-0.17,4.02-0.51c1.54-0.34,2.86-0.87,3.97-1.58
		c1.29-0.82,2.32-1.79,3.11-2.9C406.4-77.89,406.8-79.39,406.8-81.29z M405.13-119.16c0-2.72-1.05-4.89-3.14-6.5
		s-4.87-2.42-8.34-2.42c-1.29,0-2.6,0.16-3.94,0.48s-2.57,0.79-3.68,1.4c-1.04,0.61-1.9,1.41-2.58,2.39
		c-0.68,0.99-1.02,2.1-1.02,3.36c0,2.11,0.6,3.76,1.8,4.94c1.2,1.18,3.16,2.36,5.88,3.54c1,0.43,2.37,0.96,4.1,1.58
		c1.73,0.63,3.84,1.33,6.3,2.12c1.64-1.93,2.83-3.67,3.54-5.21C404.78-115,405.13-116.9,405.13-119.16z"/>
	<path d="M505.41-82.2c0,7.09-3.01,12.89-9.04,17.4c-6.03,4.51-14.3,6.77-24.82,6.77c-5.9,0-10.96-0.61-15.18-1.83
		c-4.22-1.22-7.71-2.9-10.46-5.05c-2.72-2.11-4.73-4.58-6.04-7.41c-1.31-2.83-1.96-5.87-1.96-9.13c0-4.01,1.17-7.56,3.51-10.66
		c2.34-3.1,6.39-5.81,12.15-8.14v-0.32c-4.65-2.15-8.07-4.85-10.25-8.11c-2.18-3.26-3.27-7.04-3.27-11.33
		c0-6.34,2.93-11.53,8.8-15.58c5.87-4.05,13.5-6.07,22.91-6.07c9.87,0,17.61,1.84,23.21,5.51c5.6,3.67,8.4,8.57,8.4,14.69
		c0,3.8-1.18,7.18-3.54,10.15c-2.36,2.97-5.97,5.5-10.84,7.57v0.32c5.58,2.11,9.71,4.96,12.39,8.54
		C504.07-91.3,505.41-87.07,505.41-82.2z M484.92-81.29c0-2.58-0.64-4.53-1.93-5.85c-1.29-1.32-3.93-2.85-7.94-4.57
		c-1.18-0.54-2.9-1.2-5.15-1.99c-2.25-0.79-4.15-1.47-5.69-2.04c-1.54,1.4-2.92,3.09-4.16,5.08c-1.23,1.99-1.85,4.22-1.85,6.69
		c0,3.72,1.33,6.69,4,8.89c2.66,2.2,6.14,3.3,10.44,3.3c1.14,0,2.49-0.17,4.02-0.51c1.54-0.34,2.86-0.87,3.97-1.58
		c1.29-0.82,2.32-1.79,3.11-2.9C484.52-77.89,484.92-79.39,484.92-81.29z M483.25-119.16c0-2.72-1.05-4.89-3.14-6.5
		s-4.87-2.42-8.34-2.42c-1.29,0-2.6,0.16-3.94,0.48s-2.57,0.79-3.68,1.4c-1.04,0.61-1.9,1.41-2.58,2.39
		c-0.68,0.99-1.02,2.1-1.02,3.36c0,2.11,0.6,3.76,1.8,4.94c1.2,1.18,3.16,2.36,5.88,3.54c1,0.43,2.37,0.96,4.1,1.58
		c1.73,0.63,3.84,1.33,6.3,2.12c1.64-1.93,2.83-3.67,3.54-5.21C482.9-115,483.25-116.9,483.25-119.16z"/>
	<path d="M575.54-97.35c1.75,1.5,3.15,3.26,4.18,5.26c1.04,2.01,1.56,4.67,1.56,8c0,3.76-0.74,7.27-2.23,10.53
		c-1.49,3.26-3.77,6.05-6.84,8.38c-3,2.26-6.54,3.98-10.6,5.18s-8.99,1.8-14.78,1.8c-6.62,0-12.3-0.52-17.04-1.56
		c-4.74-1.04-8.59-2.2-11.56-3.49v-17.56h2.09c3.08,1.86,6.75,3.47,11.03,4.83c4.27,1.36,8.18,2.04,11.72,2.04
		c2.07,0,4.33-0.17,6.76-0.51c2.43-0.34,4.49-1.08,6.17-2.23c1.32-0.89,2.38-1.98,3.17-3.25c0.79-1.27,1.18-3.11,1.18-5.51
		c0-2.33-0.54-4.13-1.61-5.4c-1.07-1.27-2.49-2.18-4.24-2.71c-1.75-0.57-3.86-0.89-6.33-0.94s-4.76-0.08-6.87-0.08h-4.4v-14.29h4.56
		c2.79,0,5.26-0.09,7.4-0.27c2.15-0.18,3.97-0.59,5.47-1.24c1.57-0.68,2.75-1.58,3.54-2.71c0.79-1.13,1.18-2.78,1.18-4.97
		c0-1.61-0.41-2.91-1.23-3.89c-0.82-0.98-1.86-1.76-3.11-2.34c-1.39-0.64-3.04-1.07-4.94-1.29c-1.9-0.21-3.52-0.32-4.88-0.32
		c-3.36,0-7.01,0.58-10.95,1.75c-3.93,1.16-7.74,2.84-11.43,5.02h-1.98v-17.35c2.93-1.18,6.92-2.32,11.96-3.41
		c5.04-1.09,10.16-1.64,15.34-1.64c5.04,0,9.46,0.44,13.25,1.32c3.79,0.88,6.92,2.05,9.39,3.52c2.93,1.75,5.12,3.89,6.55,6.39
		c1.43,2.51,2.15,5.44,2.15,8.81c0,4.44-1.38,8.41-4.13,11.9s-6.38,5.72-10.89,6.69v0.75c1.82,0.25,3.76,0.75,5.79,1.5
		S573.86-98.78,575.54-97.35z"/>
</g>
<g>
	<path d="M23.14,20.01v79.97H2.5V20.01H23.14z"/>
	<path d="M87.16,70.67l12.47,30.31H78.49L66.32,71.87H52.06v28.12H31.92V20.01h46.47c13.16,0,19.74,5.92,19.74,17.75v16.35
		C98.13,62.89,94.47,68.41,87.16,70.67z M52.06,55.91H74c2.66,0,3.99-1.33,3.99-3.99V39.96c0-2.66-1.33-3.99-3.99-3.99H52.06V55.91z
		"/>
	<path d="M173.12,37.26v45.47c0,11.83-6.58,17.75-19.74,17.75h-26.72c-13.16,0-19.74-5.92-19.74-17.75V37.26
		c0-11.83,6.58-17.75,19.74-17.75h26.72C166.54,19.51,173.12,25.43,173.12,37.26z M152.98,80.54V39.46c0-2.66-1.33-3.99-3.99-3.99
		h-17.95c-2.66,0-3.99,1.33-3.99,3.99v41.08c0,2.66,1.33,3.99,3.99,3.99h17.95C151.64,84.53,152.98,83.2,152.98,80.54z"/>
	<path d="M204.23,20.01l23.73,49.26V20.01h20.14v79.97h-22.54l-23.53-48.86v48.86h-20.14V20.01H204.23z"/>
	<path d="M294.37,59.1c-5.05-3.12-7.58-7.74-7.58-13.86v-8.48c0-11.83,6.58-17.75,19.74-17.75h24.73c13.16,0,19.74,5.92,19.74,17.75
		v8.48c0,6.12-2.53,10.74-7.58,13.86c0.26,0.2,0.56,0.4,0.9,0.6c5.05,3.59,7.61,8.71,7.68,15.36v8.18
		c0,11.83-6.58,17.75-19.74,17.75h-26.72c-13.16,0-19.74-5.92-19.74-17.75v-8.18c0.07-6.65,2.63-11.77,7.68-15.36
		C293.81,59.5,294.11,59.3,294.37,59.1z M309.93,66.88c-2.66,0-3.99,1.33-3.99,3.99v10.67c0,2.66,1.33,3.99,3.99,3.99h17.95
		c2.66,0,3.99-1.33,3.99-3.99V70.87c0-2.66-1.33-3.99-3.99-3.99H309.93z M306.94,47.44c0,2.66,1.33,3.99,3.99,3.99h15.95
		c2.66,0,3.99-1.33,3.99-3.99v-8.97c0-2.66-1.33-3.99-3.99-3.99h-15.95c-2.66,0-3.99,1.33-3.99,3.99V47.44z"/>
	<path d="M384.72,51.32h14.66c2.66,0,3.99-1,3.99-2.99v-8.87c0-2.66-1.33-3.99-3.99-3.99h-14.46c-2.66,0-3.99,1.33-3.99,3.99v6.88
		h-20.14v-9.07c0-11.83,6.58-17.75,19.74-17.75h23.23c13.16,0,19.74,5.92,19.74,17.75v7.38c0,6.18-2.46,11-7.38,14.46
		c0.13,0.13,0.3,0.27,0.5,0.4c5.25,4.52,7.88,9.67,7.88,15.46v7.78c0,11.83-6.58,17.75-19.74,17.75h-25.73
		c-13.16,0-19.74-5.92-19.74-17.75v-9.17h20.14v6.98c0,2.66,1.33,3.99,3.99,3.99h16.95c2.66,0,3.99-1.33,3.99-3.99v-9.77
		c0-2.66-1.33-3.99-3.99-3.99h-15.66V51.32z"/>
	<path d="M457.71,51.32h14.66c2.66,0,3.99-1,3.99-2.99v-8.87c0-2.66-1.33-3.99-3.99-3.99h-14.46c-2.66,0-3.99,1.33-3.99,3.99v6.88
		h-20.14v-9.07c0-11.83,6.58-17.75,19.74-17.75h23.23c13.16,0,19.74,5.92,19.74,17.75v7.38c0,6.18-2.46,11-7.38,14.46
		c0.13,0.13,0.3,0.27,0.5,0.4c5.25,4.52,7.88,9.67,7.88,15.46v7.78c0,11.83-6.58,17.75-19.74,17.75h-25.73
		c-13.16,0-19.74-5.92-19.74-17.75v-9.17h20.14v6.98c0,2.66,1.33,3.99,3.99,3.99h16.95c2.66,0,3.99-1.33,3.99-3.99v-9.77
		c0-2.66-1.33-3.99-3.99-3.99h-15.66V51.32z"/>
</g>
</svg>
